<?xml version="1.0" encoding="UTF-8"?>
<!DOCTYPE svg PUBLIC "-//W3C//DTD SVG 1.0//EN" "http://www.w3.org/TR/2001/REC-SVG-20010904/DTD/svg10.dtd">
<!-- Creator: CorelDRAW X7 -->
<svg xmlns="http://www.w3.org/2000/svg" xml:space="preserve" width="126.099mm" height="47.6191mm" version="1.0" style="shape-rendering:geometricPrecision; text-rendering:geometricPrecision; image-rendering:optimizeQuality; fill-rule:evenodd; clip-rule:evenodd"
viewBox="0 0 12610 4762"
 xmlns:xlink="http://www.w3.org/1999/xlink">
 <defs>
  <style type="text/css">
   <![CDATA[
    .fil2 {fill:#93AA36}
    .fil1 {fill:#FF396C}
    .fil0 {fill:#93AA36;fill-rule:nonzero}
    .fil3 {fill:#FF396C;fill-rule:nonzero}
   ]]>
  </style>
 </defs>
 <g id="Слой_x0020_1">
  <metadata id="CorelCorpID_0Corel-Layer"/>
  <g id="_764412736">
   <path class="fil0" d="M5924 3766l-72 636c-2,24 -24,49 -64,77 -40,30 -63,35 -71,16 -1,-3 -1,-8 0,-14l93 -821c-78,-81 -146,-170 -203,-266 -15,-24 -6,-51 28,-82 35,-31 64,-46 89,-45 38,1 82,2 131,2l72 -645c3,-23 25,-50 64,-78 41,-29 64,-34 71,-15 2,3 2,8 1,13l-81 721c80,-3 158,-8 234,-16 76,-8 156,-21 239,-39 84,-18 163,-39 235,-63 73,-25 143,-57 210,-96 68,-39 125,-82 173,-130 49,-48 88,-106 118,-172 31,-66 48,-138 52,-216 4,-75 -8,-144 -35,-207 -27,-63 -63,-116 -109,-160 -46,-43 -101,-81 -164,-113 -64,-32 -128,-56 -194,-73 -66,-16 -134,-27 -203,-32 -233,-17 -530,-1 -783,52 -162,34 -306,66 -406,166 -12,11 -24,24 -35,36l0 -111c210,-263 1083,-314 1437,-268 94,13 184,38 270,77 86,39 160,90 221,153 54,58 93,125 115,200 23,75 29,151 20,227 -9,76 -29,150 -61,223 -31,72 -72,139 -121,198 -69,82 -151,153 -247,215 -95,62 -197,112 -307,149 -109,38 -219,67 -329,87 -110,20 -225,34 -345,42l-17 155c1028,1029 4075,1072 5335,489 675,-312 722,-1293 145,-1968l143 0c175,231 319,483 371,772 86,482 -104,1052 -553,1274 -1468,724 -4418,516 -5467,-350zm-103 -366c4,5 9,12 16,21l2 -21c-1,0 -4,0 -8,0 -4,0 -8,0 -10,0z"/>
   <path class="fil1" d="M11894 146c253,328 410,720 231,1177 -26,93 -65,128 40,41 431,-356 192,-1029 -256,-1248 -100,-50 -64,-34 -15,30z"/>
   <path class="fil1" d="M10435 158c-422,557 -428,1289 89,1728 16,14 -12,31 -46,17 -288,-116 -1201,-756 -97,-1781 17,-16 84,-3 54,36z"/>
   <path class="fil1" d="M10909 1263c-137,-110 -195,-324 -42,-534 277,-382 608,-244 716,-166 107,78 417,387 184,707 -233,321 -672,542 -971,325 -609,-442 -494,-1332 331,-1472 166,-28 262,-31 242,-72 -21,-41 -247,-86 -479,-9 -232,76 -400,215 -512,416 -111,201 -303,704 152,1170 670,689 2092,-299 1303,-1131 -664,-700 -1693,433 -1031,914 534,387 1190,-471 636,-705 -143,-60 -258,58 -245,75 1,2 68,-27 151,-1 467,143 -108,746 -435,483z"/>
   <path class="fil1" d="M12484 1297c0,0 62,-38 -16,147 -98,230 -301,467 -534,596 -349,194 -774,196 -1089,-23 -194,-134 -271,-199 -87,-137 595,201 1231,45 1625,-449 37,-46 61,-97 101,-134z"/>
   <path class="fil0" d="M9722 3698c9,-4 19,1 33,16 13,15 22,31 27,48 5,16 4,28 -2,34 -17,9 -31,20 -42,35 -9,13 -24,5 -45,-24 -21,-30 -28,-51 -19,-64 13,-19 29,-34 48,-45zm1581 -200c10,4 15,12 13,22 -1,11 -4,21 -9,29 -5,9 -11,17 -17,24 -15,16 -31,33 -47,50 -17,17 -40,38 -69,64 -28,26 -56,46 -81,60 -26,15 -52,25 -77,32 -26,7 -48,2 -66,-14 -18,-17 -30,-44 -37,-83 -6,-36 -8,-73 -5,-110 -37,53 -82,99 -134,138 -24,16 -48,28 -73,37 -25,9 -52,11 -79,5 -27,-6 -47,-22 -60,-49 -31,-58 -27,-162 -15,-226 6,-33 15,-77 29,-132 13,-55 21,-89 23,-102 5,-22 29,-48 70,-77 40,-28 62,-33 66,-14 1,4 1,8 0,12 -3,16 -8,41 -16,74 -7,33 -13,59 -17,77 -3,18 -8,44 -13,78 -6,34 -8,60 -8,78 1,19 2,45 3,77 5,36 18,59 38,69 21,9 44,1 69,-26 11,-11 21,-22 31,-35 9,-12 19,-26 28,-42 9,-16 17,-30 24,-41 7,-11 15,-27 24,-48 9,-21 16,-35 20,-43 4,-8 11,-25 21,-49 9,-25 15,-40 17,-45 3,-5 9,-22 19,-48 10,-27 16,-41 17,-44 6,-18 30,-40 72,-65 43,-27 63,-29 61,-5 -1,2 -2,4 -2,6 -28,97 -49,194 -64,294 -1,1 -4,14 -8,39 -4,25 -7,43 -7,54 -1,10 0,25 1,43 1,18 4,33 9,43 8,13 15,23 23,29 7,7 15,10 23,9 8,-1 15,-2 22,-5 7,-3 15,-8 24,-17 8,-8 15,-15 20,-21 6,-5 13,-13 22,-24 9,-10 15,-18 19,-22 42,-48 74,-67 96,-56z"/>
   <path class="fil0" d="M7739 3349l0 0 1 2c9,25 16,52 19,80 7,58 -3,114 -31,168 -40,79 -104,139 -193,181 -63,26 -123,32 -181,18 -58,-13 -108,-44 -151,-92 -42,-48 -69,-104 -78,-168 -11,-67 2,-135 40,-202 37,-67 86,-129 146,-186 4,-3 10,-3 17,0 28,-42 66,-69 113,-83 42,-9 85,5 129,41 43,37 82,83 117,140l1 0c16,25 36,60 51,101zm-175 -141c-18,-6 -37,-8 -55,-6l0 0c-53,-6 -165,124 -176,136l0 0 0 1 -1 0c-32,37 -59,78 -82,122 -13,25 -23,46 -30,65 -7,19 -9,40 -7,65 2,24 13,44 32,58 63,36 128,39 194,9 57,-22 121,-38 170,-87 48,-49 83,-115 69,-177 0,-57 -53,-165 -114,-186zm2100 224c10,11 9,25 -1,43 -11,19 -23,34 -36,45 -1,1 -3,4 -6,7 -211,190 -334,219 -370,88 -10,-33 -16,-67 -18,-101 -15,23 -30,46 -47,67 -35,44 -74,84 -118,119 -44,35 -86,52 -127,51 -30,-1 -59,-17 -87,-49 -29,-31 -51,-65 -68,-102 -27,-54 -36,-112 -27,-173 9,-62 28,-119 56,-171 29,-53 65,-101 109,-146 70,-72 132,-104 184,-96 48,7 99,52 152,134 9,-28 16,-56 21,-83 2,-13 16,-5 42,24 34,40 49,71 45,95 -1,1 -2,2 -2,3 0,1 0,1 0,1l0 2c1,101 4,183 10,249 0,2 0,8 1,19 1,10 2,18 3,23 0,5 1,12 3,22 1,9 4,17 6,23 3,6 6,12 11,18 4,5 9,10 14,13 9,3 16,6 23,7 7,1 16,-1 26,-7 10,-5 19,-10 26,-14 7,-5 15,-11 25,-19 10,-9 19,-16 24,-21 6,-6 13,-12 21,-20 8,-7 14,-12 17,-16 43,-39 72,-51 88,-35zm-713 156c125,-66 221,-190 287,-372 -4,-6 -8,-11 -11,-16 -21,-31 -45,-48 -73,-49 -29,-2 -57,8 -86,30 -29,22 -54,45 -76,68 -21,24 -40,48 -57,73 -33,48 -59,105 -77,173 -22,79 -10,116 35,112 16,-1 35,-8 58,-19z"/>
   <path class="fil2" d="M11645 3839l4 15 368 -119c20,-6 41,-12 62,-18 68,-19 138,-39 202,-70 155,-78 256,-252 327,-396 2,-4 2,-9 1,-14 1,-4 -3,-11 -8,-15 -5,-3 -12,-4 -18,-2 -59,19 -124,27 -186,35 -104,14 -212,27 -302,91 -52,36 -97,88 -135,156 -18,32 -35,69 -53,116 -5,13 -10,26 -14,40 -9,28 -18,58 -34,81 -22,6 -175,65 -239,88 -10,-4 -13,11 -15,19l183 91c11,7 23,13 34,19 37,20 75,41 116,55 98,32 215,0 305,-31 3,-1 5,-3 6,-6 3,-1 4,-6 3,-10 0,-3 -3,-6 -6,-8 -33,-17 -64,-41 -94,-63 -50,-38 -102,-78 -167,-89 -37,-6 -79,-3 -123,10 -21,6 -44,15 -71,27 -8,4 -15,8 -23,12 -16,8 -32,16 -49,20 -7,-4 -40,-19 -74,-34z"/>
   <path class="fil2" d="M11840 3354l-30 -1 -114 -142c-8,-11 -17,-21 -26,-31 -28,-32 -57,-66 -79,-104 -53,-92 -46,-215 -34,-312 1,-3 2,-5 4,-8 1,-2 5,-4 9,-5 4,0 8,2 10,5 24,30 54,56 84,81 48,42 99,85 124,148 14,36 19,78 16,125 -2,23 -5,47 -12,78 -2,8 -4,16 -6,25 -5,17 -10,35 -10,53 10,12 50,70 64,88z"/>
   <path class="fil3" d="M4220 3654c-24,8 -47,14 -69,14 -50,0 -82,-45 -156,-45 -27,0 -42,12 -60,9 110,-121 370,-275 370,-347 0,-125 -404,-161 -404,-161 17,-64 -4,-180 -87,-180 -64,0 -96,52 -96,97 0,70 86,129 112,129 -38,83 -129,217 -187,273 -6,5 26,58 39,58 79,-69 166,-235 205,-329 0,0 12,3 17,4 66,11 245,63 245,88 0,49 -203,169 -298,255 -43,39 -94,117 -94,175 0,30 26,57 57,57 12,0 25,-4 37,-12 41,-24 82,-28 127,-28 58,0 125,32 187,32 45,0 96,-4 142,-32 67,-39 165,-178 173,-180 -2,-21 -13,-259 -15,-281 -8,12 -54,342 -245,404zm-377 -537c-25,0 -71,-44 -71,-71 0,-33 14,-49 33,-49 71,0 38,120 38,120z"/>
   <path class="fil0" d="M8507 3654c-23,8 -47,14 -68,14 -51,0 -83,-45 -157,-45 -26,0 -42,12 -59,9 109,-121 369,-275 369,-347 0,-125 -403,-161 -403,-161 16,-64 -4,-180 -88,-180 -64,0 -95,52 -95,97 0,70 86,129 111,129 -38,83 -128,217 -187,273 -6,5 26,58 39,58 79,-69 166,-235 205,-329 0,0 13,3 17,4 67,11 246,63 246,88 0,49 -203,169 -299,255 -43,39 -93,117 -93,175 0,30 25,57 56,57 12,0 25,-4 37,-12 41,-24 82,-28 127,-28 59,0 125,32 187,32 45,0 96,-13 143,-41 66,-39 277,-316 285,-318 -2,-21 -23,-124 -25,-145 -7,11 -157,352 -348,415zm-376 -537c-26,0 -71,-44 -71,-71 0,-33 13,-49 33,-49 71,0 38,120 38,120z"/>
   <path class="fil2" d="M7441 3067l-111 80c-15,11 150,385 412,435 112,22 226,-26 324,-202 75,-136 -7,-105 -7,-105 0,0 -69,112 -129,168 -120,110 -400,12 -400,-181 0,-75 34,-54 34,-54l-123 -141z"/>
   <path class="fil0" d="M10138 3370c21,-24 47,-54 79,-92 31,-37 60,-69 84,-95 24,-27 48,-50 73,-70 16,-10 33,-15 49,-15 10,0 20,3 29,9 10,6 16,13 18,20 9,36 -136,214 -17,214 98,0 168,-163 203,-163 7,0 14,3 22,9 8,6 13,13 15,20 14,52 -232,420 -384,137 -59,52 -123,115 -158,193 -35,78 -44,121 -55,174 -6,25 -18,60 -32,76 -14,17 -28,12 -46,12 -30,0 -51,-31 -52,-59 -1,-6 -1,-11 -2,-14 7,-80 36,-167 51,-260 16,-93 38,-175 66,-247 28,-71 62,-107 102,-107 16,0 26,7 30,20 4,14 -7,50 -31,109 -25,59 -40,102 -44,129z"/>
   <path class="fil3" d="M2726 3506c23,6 20,28 -8,66 -27,39 -56,62 -85,67 -5,1 -10,1 -16,0 -29,-8 -63,-16 -104,-24 -6,22 -13,42 -19,59 -23,62 -53,122 -92,180 -39,58 -82,110 -128,157 -46,47 -99,93 -159,137 -59,44 -118,84 -175,119 -57,34 -120,69 -188,102 -69,34 -131,63 -188,87 -57,24 -118,48 -183,73 -243,95 -495,163 -753,203 -6,0 -14,1 -24,4 -53,7 -95,13 -127,16 -32,4 -74,7 -124,9 -51,2 -97,0 -139,-8 -42,-7 -79,-19 -112,-35 -62,-32 -96,-74 -101,-125 -5,-51 15,-107 60,-165 45,-59 96,-116 153,-172 57,-55 124,-111 201,-166 78,-55 138,-96 181,-125 42,-28 80,-52 112,-71 246,-148 507,-261 784,-340l69 -503c-26,4 -49,9 -69,14 -26,5 -31,-6 -15,-35 19,-34 43,-63 73,-87 4,-3 7,-5 9,-6l19 -10 100 -712c3,-22 24,-48 64,-77 41,-29 64,-34 70,-16 2,5 2,9 2,15l-103 728c45,-24 88,-47 129,-70 40,-23 83,-50 128,-81 45,-31 85,-62 119,-93 35,-31 67,-65 95,-102 28,-37 49,-73 62,-110 13,-36 17,-75 12,-116 -5,-41 -21,-81 -48,-121 -42,-64 -94,-114 -155,-148 -61,-35 -124,-55 -188,-61 -65,-6 -134,-2 -207,11 -73,13 -144,34 -213,61 -68,27 -136,59 -202,96 -67,37 -127,74 -179,111 -53,37 -99,73 -140,110 -26,20 -49,31 -66,32 -18,1 -26,-8 -25,-26 1,-18 14,-38 38,-59 202,-181 431,-317 687,-409 56,-19 116,-34 178,-43 61,-9 126,-11 194,-7 67,4 129,16 186,35 57,20 110,51 157,94 48,43 83,97 105,160 14,37 22,75 22,114 1,39 -5,77 -18,113 -12,37 -28,72 -48,107 -21,35 -46,69 -76,103 -30,33 -61,65 -94,96 -34,30 -70,60 -111,90 -41,29 -80,56 -118,81 -38,24 -78,48 -119,72 75,0 147,7 218,22 70,15 137,38 200,68 63,31 118,68 164,112 46,43 81,96 107,158 26,62 36,130 32,204 64,9 127,21 189,37zm-1039 -470l-67 483c250,-61 504,-84 760,-68 -15,-79 -45,-147 -91,-206 -45,-58 -100,-102 -164,-133 -64,-30 -133,-52 -206,-65 -73,-12 -150,-16 -232,-11zm-136 1323c55,-24 104,-45 148,-65 43,-20 95,-45 154,-76 58,-31 110,-62 156,-92 45,-30 92,-65 140,-105 48,-41 88,-82 120,-124 32,-42 60,-89 82,-141 23,-52 35,-106 39,-160 -264,-31 -526,-17 -786,41l-19 138c-3,23 -25,48 -64,77 -41,29 -64,34 -71,16 -1,-3 -1,-8 0,-14l26 -186c-279,74 -542,185 -787,333 -161,98 -292,195 -395,294 -180,173 -180,278 2,314 23,4 50,8 80,11 312,24 704,-63 1175,-261zm2148 -883c-10,18 -22,33 -35,44 -1,1 -3,4 -6,7 -211,190 -334,219 -371,88 -9,-33 -15,-67 -17,-101 -15,23 -31,46 -47,67 -35,44 -75,84 -118,119 -44,35 -86,52 -127,51 -30,-1 -59,-17 -87,-49 -29,-31 -51,-65 -68,-102 -27,-54 -36,-112 -27,-173 9,-62 28,-119 56,-171 28,-53 65,-101 108,-146 71,-72 132,-104 185,-96 48,7 99,52 152,134 9,-28 16,-56 21,-83 2,-13 16,-5 42,24 34,40 49,71 44,95 -1,1 -1,2 -1,3 0,1 0,1 0,1l0 2c1,101 4,183 9,249 0,2 1,8 2,19 1,10 2,18 2,23 1,5 2,12 4,22 1,9 3,17 6,23 3,6 6,12 11,18 4,5 9,10 14,13 9,3 16,6 23,7 7,1 16,-2 26,-7 10,-5 19,-10 26,-14 6,-5 15,-11 25,-19 10,-9 18,-16 24,-21 6,-6 13,-12 21,-20 8,-7 14,-12 17,-16 24,-21 43,-35 59,-40l27 49zm-711 112c125,-66 220,-190 287,-372 -5,-6 -8,-11 -12,-16 -20,-31 -44,-48 -73,-49 -28,-2 -57,8 -85,30 -29,22 -54,45 -76,68 -21,24 -40,48 -57,73 -34,48 -59,105 -77,173 -22,79 -10,116 35,112 16,-1 35,-8 58,-19zm2312 -156c10,11 9,25 -1,43 -11,19 -23,34 -36,45 -1,1 -3,4 -6,7 -211,190 -334,219 -370,88 -10,-33 -16,-67 -18,-101 -15,23 -30,46 -46,67 -36,44 -75,84 -119,119 -44,35 -86,52 -127,51 -30,-1 -59,-17 -87,-49 -28,-31 -51,-65 -68,-102 -27,-54 -36,-112 -27,-173 9,-62 28,-119 56,-171 29,-53 65,-101 109,-146 70,-72 132,-104 184,-96 48,7 99,52 152,134 9,-28 16,-56 21,-83 2,-13 16,-5 42,24 34,40 49,71 45,95 -1,1 -2,2 -2,3 0,1 0,1 0,1l0 2c1,101 4,183 10,249 0,2 0,8 1,19 1,10 2,18 3,23 0,5 1,12 3,22 2,9 4,17 6,23 3,6 6,12 11,18 4,5 9,10 14,13 9,3 16,6 23,7 7,1 16,-1 26,-7 10,-5 19,-10 26,-14 7,-5 15,-11 25,-19 11,-9 19,-16 24,-21 6,-6 13,-12 21,-20 8,-7 14,-12 17,-16 43,-39 72,-51 88,-35zm-713 156c125,-66 221,-190 287,-372 -4,-6 -8,-11 -11,-16 -21,-31 -45,-48 -73,-49 -29,-2 -57,8 -86,30 -29,22 -54,45 -75,68 -22,24 -41,48 -58,73 -33,48 -59,105 -77,173 -22,79 -10,116 35,112 16,-1 35,-8 58,-19z"/>
  </g>
 </g>
</svg>
