<svg xmlns="http://www.w3.org/2000/svg" width="26.218" height="26.25" viewBox="0 0 26.218 26.25">
  <metadata><?xpacket begin="﻿" id="W5M0MpCehiHzreSzNTczkc9d"?>
<x:xmpmeta xmlns:x="adobe:ns:meta/" x:xmptk="Adobe XMP Core 5.6-c142 79.160924, 2017/07/13-01:06:39        ">
   <rdf:RDF xmlns:rdf="http://www.w3.org/1999/02/22-rdf-syntax-ns#">
      <rdf:Description rdf:about=""/>
   </rdf:RDF>
</x:xmpmeta>
                                                                                                    
                                                                                                    
                                                                                                    
                                                                                                    
                                                                                                    
                                                                                                    
                                                                                                    
                                                                                                    
                                                                                                    
                                                                                                    
                                                                                                    
                                                                                                    
                                                                                                    
                                                                                                    
                                                                                                    
                                                                                                    
                                                                                                    
                                                                                                    
                                                                                                    
                                                                                                    
                           
<?xpacket end="w"?></metadata>
<defs>
    <style>
      .cls-1 {
        fill: #fff;
        fill-rule: evenodd;
      }
    </style>
  </defs>
  <path id="Фигура_1_копия" data-name="Фигура 1 копия" class="cls-1" d="M287.425,298.117A13.118,13.118,0,1,1,300.542,285,13.132,13.132,0,0,1,287.425,298.117Zm0-23.487A10.37,10.37,0,1,0,297.8,285,10.382,10.382,0,0,0,287.425,274.63Zm-1.084,9.335h-3.788a1.035,1.035,0,0,0,0,2.07H292.2a1.035,1.035,0,0,0,0-2.07h-5.856Zm0.1-3.843h-3.787a1.035,1.035,0,1,0,0,2.07H292.3a1.035,1.035,0,1,0,0-2.07h-5.857Zm0,7.686h-3.787a1.035,1.035,0,1,0,0,2.069H292.3a1.035,1.035,0,1,0,0-2.069h-5.857Z" transform="translate(-274.313 -271.875)"/>
</svg>
