<svg xmlns="http://www.w3.org/2000/svg" width="11.875" height="11.843" viewBox="0 0 11.875 11.843">
  <metadata><?xpacket begin="﻿" id="W5M0MpCehiHzreSzNTczkc9d"?>
<x:xmpmeta xmlns:x="adobe:ns:meta/" x:xmptk="Adobe XMP Core 5.6-c142 79.160924, 2017/07/13-01:06:39        ">
   <rdf:RDF xmlns:rdf="http://www.w3.org/1999/02/22-rdf-syntax-ns#">
      <rdf:Description rdf:about=""/>
   </rdf:RDF>
</x:xmpmeta>
                                                                                                    
                                                                                                    
                                                                                                    
                                                                                                    
                                                                                                    
                                                                                                    
                                                                                                    
                                                                                                    
                                                                                                    
                                                                                                    
                                                                                                    
                                                                                                    
                                                                                                    
                                                                                                    
                                                                                                    
                                                                                                    
                                                                                                    
                                                                                                    
                                                                                                    
                                                                                                    
                           
<?xpacket end="w"?></metadata>
<defs>
    <style>
      .cls-1 {
        fill: #fff;
        fill-rule: evenodd;
      }
    </style>
  </defs>
  <path id="Forma_1" data-name="Forma 1" class="cls-1" d="M120.177,286.939l-1.836-1.837a0.956,0.956,0,0,0-1.349.026l-0.925.925-0.183-.1a8.677,8.677,0,0,1-3.837-3.838l-0.1-.178,0.621-.62,0.3-.305a0.956,0.956,0,0,0,.024-1.35l-1.836-1.836a0.955,0.955,0,0,0-1.349.025l-0.518.52,0.015,0.014a3,3,0,0,0-.427.752,3.14,3.14,0,0,0-.189.763c-0.243,2.01.676,3.847,3.168,6.339,3.445,3.445,6.221,3.185,6.341,3.172a3.122,3.122,0,0,0,.765-0.192,2.991,2.991,0,0,0,.749-0.425l0.012,0.01,0.524-.513A0.957,0.957,0,0,0,120.177,286.939Z" transform="translate(-108.563 -277.563)"/>
</svg>
