<?xml version="1.0" encoding="UTF-8"?>
<!DOCTYPE svg PUBLIC "-//W3C//DTD SVG 1.0//EN" "http://www.w3.org/TR/2001/REC-SVG-20010904/DTD/svg10.dtd">
<!-- Creator: CorelDRAW 2020 (64-Bit) -->
<svg xmlns="http://www.w3.org/2000/svg" xml:space="preserve" width="1489px" height="555px" version="1.0" shape-rendering="geometricPrecision" text-rendering="geometricPrecision" image-rendering="optimizeQuality" fill-rule="evenodd" clip-rule="evenodd"
viewBox="0 0 140310 52323"
 xmlns:xlink="http://www.w3.org/1999/xlink"
 xmlns:xodm="http://www.corel.com/coreldraw/odm/2003">
 <g id="Слой_x0020_1">
  <metadata id="CorelCorpID_0Corel-Layer"/>
  <path fill="#93AA36" fill-rule="nonzero" d="M96838 24647c56,75 85,160 85,264 9,147 -47,246 -165,289 -95,38 -222,47 -387,28 -150,-19 -287,-52 -414,-108 -359,-166 -901,-279 -1617,-332 -561,-37 -1159,-28 -1796,24 -1140,114 -2455,359 -3949,738 -1046,265 -2342,648 -3878,1149 -1259,416 -3026,1045 -5302,1882 0,114 0,274 -5,492 -5,218 -9,383 -9,492 0,4483 273,8768 815,12858 278,2015 664,3878 1159,5600 104,369 274,912 514,1631l94 265 85 265c0,-19 -5,-43 -14,-71l38 165c75,232 56,407 -62,530 -113,118 -264,147 -447,90 -184,-61 -321,-194 -415,-397 -274,-658 -599,-1627 -966,-2909 -618,-2161 -1141,-4303 -1574,-6431 -476,-2355 -816,-4540 -1009,-6564 -9,-29 -14,-71 -14,-133 0,-61 0,-104 0,-132l-38 0 0 -43 -28 0c0,-28 -9,-85 -28,-179 -10,-19 -19,-52 -28,-109 -10,-57 -19,-99 -29,-128 -47,-175 -89,-317 -136,-425 -156,-346 -307,-601 -443,-776 -330,-435 -788,-733 -1367,-889 -184,-57 -486,-90 -910,-109l-485 14c-66,0 -165,10 -297,24 -132,19 -217,28 -255,28 -801,95 -1541,208 -2224,350 -433,81 -726,142 -881,180l-443 109 -222 56c28,71 28,71 0,0l-108 29 0 0 -57 0c-28,9 -61,14 -99,19 -33,4 -75,9 -122,14 -47,5 -95,5 -151,0 -57,-5 -109,-14 -151,-33 -344,-85 -580,-289 -721,-610 -127,-270 -141,-549 -38,-847 90,-269 278,-473 566,-610l80 -42 14 0 14 -15 28 -14 57 -9 207 -85 439 -166 886 -331c2465,-936 4713,-1731 6734,-2383 10,-123 19,-298 29,-535 9,-236 14,-416 14,-534 37,-941 118,-1963 235,-3060 297,-2615 750,-4809 1367,-6583 453,-1258 980,-2289 1588,-3102 424,-572 872,-1012 1339,-1320 297,-193 594,-335 900,-425 80,-29 245,-76 495,-142 56,0 136,-5 249,-14 109,-10 194,-14 250,-14 660,0 1221,137 1683,402 480,250 900,610 1272,1082 613,776 1009,1741 1183,2895 19,94 33,189 42,293 10,99 19,217 24,345 5,128 9,227 19,289l-28 473c0,212 -10,368 -29,472l-37 303 -71 308 -28 80c-76,260 -189,402 -354,430 -160,29 -297,-38 -415,-194 -113,-156 -155,-331 -127,-525 137,-1045 99,-1967 -113,-2771l-245 -709c-212,-379 -339,-591 -377,-634 -19,-28 -170,-213 -452,-558l-264 -222c-29,-24 -76,-57 -146,-95 -66,-38 -114,-66 -132,-85 -377,-222 -792,-322 -1240,-303 -47,10 -113,19 -202,29 -85,9 -161,19 -227,33 -66,14 -122,33 -179,61 -240,104 -424,208 -551,322 -589,440 -1122,1220 -1588,2341 -335,842 -622,1830 -872,2979 -476,2251 -783,4900 -910,7936l0 85c2437,-747 4675,-1353 6711,-1816 1381,-312 2564,-553 3549,-719 1452,-232 2667,-364 3643,-402 910,-19 1678,57 2305,222 155,48 287,90 386,137 94,29 207,86 349,166 -10,-9 -33,-24 -71,-43 127,76 203,123 221,142 137,109 231,204 274,275zm-19978 5462c194,99 363,203 509,302 -4,-241 -9,-595 -9,-1068 -28,9 -75,28 -141,56 -62,29 -109,48 -137,57 -222,80 -542,208 -966,374 221,66 471,156 744,279zm11061 -11724l-28 100 28 -100z"/>
  <path id="1" fill="#93AA36" fill-rule="nonzero" d="M88464 38348c-24,30 -63,57 -113,78 -36,560 -60,998 -71,1314 -12,319 -9,715 5,1192 15,477 57,912 125,1303 92,527 294,846 600,950 181,66 354,54 514,-29 163,-84 294,-194 392,-328 98,-134 187,-292 261,-471 48,-116 155,-170 321,-158 146,6 220,59 220,158l-18 86c-169,397 -410,710 -722,939 -314,230 -674,316 -1081,256 -463,-62 -855,-354 -1173,-870 -291,-480 -472,-1115 -549,-1904 -18,-212 -33,-421 -42,-635 -12,-212 -18,-444 -15,-695 3,-250 6,-453 6,-614 0,-161 9,-390 24,-694 18,-301 33,-510 41,-620 9,-110 24,-343 48,-695 24,-351 36,-563 41,-631l0 -9 0 -27c0,-54 7,-131 18,-236 12,-104 18,-184 18,-235 0,-30 6,-69 18,-113 110,-1100 261,-2152 451,-3154 238,-1198 517,-2152 838,-2855 330,-733 728,-1219 1191,-1457 202,-123 443,-179 722,-167 279,12 496,113 653,307 167,208 259,572 271,1090 6,448 -60,990 -193,1625 -262,1264 -651,2629 -1165,4095 -249,703 -499,1314 -745,1830 -247,516 -544,972 -891,1374zm956 -7779c-255,814 -448,1663 -579,2545 -131,883 -244,1920 -342,3112l0 9 -9 9c-35,629 -65,1085 -89,1371 187,-298 348,-587 478,-873 291,-605 556,-1264 794,-1973 424,-1264 683,-2525 775,-3783 24,-360 35,-635 35,-819l0 -349c0,-78 -3,-161 -8,-253 -24,-239 -54,-415 -90,-525 -6,-30 -20,-72 -41,-131l-9 -9 -18 -36c-6,6 -18,18 -36,33 -17,15 -32,24 -41,30l-63 59c-74,96 -115,143 -121,149l-87 123c-35,53 -98,166 -184,342 -121,254 -243,579 -365,969z"/>
  <path id="2" fill="#93AA36" fill-rule="nonzero" d="M96946 39397l0 69 0 36c-26,947 -225,1764 -591,2443 -184,343 -380,632 -588,862 -205,229 -454,399 -751,510 -668,244 -1301,226 -1907,-54 -665,-307 -1161,-805 -1488,-1490 -324,-689 -490,-1440 -496,-2254 0,-29 3,-53 9,-71 -6,-24 -9,-57 -9,-104 12,-1026 267,-1908 766,-2647 238,-355 547,-653 924,-897 377,-245 778,-397 1206,-456 425,-57 843,15 1256,217 475,251 882,763 1218,1538 285,659 434,1392 451,2200l0 36 0 62zm-2070 3160c285,-123 529,-299 737,-528 205,-230 359,-495 463,-790 107,-298 181,-590 232,-882 50,-292 77,-599 83,-927 -12,-900 -190,-1645 -532,-2235 -279,-483 -692,-811 -1244,-987 -18,-6 -45,-12 -83,-18 -36,-6 -69,-9 -89,-15l-122 -18 -166 0c-6,0 -12,0 -21,3 -9,3 -18,6 -24,6 -45,6 -101,18 -163,42 -12,0 -45,9 -98,27 -9,6 -27,15 -51,27l-36 18c-56,24 -101,41 -130,59l-104 72c-12,12 -36,27 -68,50 -36,24 -60,42 -72,54 -12,6 -41,33 -86,78l-104 104c-187,211 -336,423 -445,638 -268,542 -404,1198 -416,1964 0,30 -3,53 -9,71 6,24 9,57 9,105 12,843 190,1549 537,2113 152,244 309,438 473,584 68,72 163,146 285,227l104 71 104 51c18,12 47,24 89,36 38,11 71,23 95,35l35 18 27 0c21,6 63,15 116,30 56,15 101,24 134,30 83,-6 130,-9 148,-9l36 0c6,0 15,0 30,-3 14,-3 26,-6 29,-6 36,-6 89,-18 158,-42 6,-6 26,-15 56,-24 33,-9 51,-12 57,-12 5,0 8,-3 8,-9 6,0 12,-3 18,-8z"/>
  <path id="3" fill="#93AA36" fill-rule="nonzero" d="M108103 37126c47,745 38,1553 -24,2426 -36,403 -104,799 -202,1192 -98,394 -235,787 -410,1181 -172,393 -404,739 -695,1043 -291,301 -621,524 -992,662 -324,125 -663,160 -1013,116 -350,-48 -665,-176 -945,-385 -412,-310 -724,-816 -938,-1520 -42,-122 -83,-292 -125,-506 -148,414 -341,801 -573,1162 -422,662 -983,1073 -1678,1231 -784,161 -1420,15 -1907,-447 -202,-191 -371,-421 -508,-686 -137,-265 -235,-557 -297,-876 -59,-319 -104,-605 -125,-855 -24,-251 -38,-549 -44,-892 -6,-330 -3,-697 11,-1096 15,-397 33,-722 48,-969 18,-247 51,-623 98,-1127 45,-503 74,-840 86,-1007 12,-188 122,-328 330,-420 211,-93 413,-105 609,-36 199,71 288,209 270,411 -18,215 -47,572 -92,1067 -42,495 -74,879 -95,1157 -21,277 -36,620 -51,1028 -14,411 -20,790 -14,1133 12,593 77,1126 193,1597 68,262 142,462 217,602 47,81 109,176 190,280 6,6 17,21 35,45 18,21 30,36 36,42l68 71c18,12 39,27 63,48 23,21 41,36 59,48 6,6 18,12 36,20 17,9 29,18 35,21l0 9c12,6 30,15 57,24 26,9 44,15 56,21 6,6 18,12 36,18 15,6 27,9 32,9 18,6 48,12 90,18 38,6 71,12 95,18l26 0c9,0 33,-3 69,-6 35,-3 59,-3 68,-3 12,0 24,-3 36,-6 11,-3 23,-3 35,-3 18,0 42,-3 75,-9 32,-6 53,-12 65,-18 18,-6 47,-12 92,-21 41,-9 74,-18 98,-24 12,0 27,-6 45,-18 17,-9 29,-15 35,-15 74,-29 137,-59 190,-89l104 -51 9 -9c6,0 12,-3 18,-9 330,-226 576,-467 740,-724 365,-560 623,-1273 775,-2140l0 -18c-12,-629 26,-1159 113,-1588 29,-140 107,-257 234,-346 128,-89 267,-137 419,-143 137,-6 270,33 395,116 125,87 172,194 143,328 -226,1147 -196,2250 89,3311 68,266 145,480 234,635 69,128 134,239 199,325l104 131 18 18 45 42c38,42 86,80 139,113 3,6 15,15 33,24 18,9 30,15 36,21 18,6 41,15 74,30 33,14 56,29 74,38l33 18c12,0 27,3 44,9l158 27 113 0 8 0c6,0 12,0 21,-3 9,-3 18,-6 24,-6l95 -36c74,-27 122,-47 140,-59l41 -18c0,-6 12,-18 36,-36 68,-45 122,-83 157,-113 33,-30 69,-60 104,-96 202,-196 398,-441 582,-733 401,-653 681,-1383 835,-2190 101,-531 155,-1133 166,-1810 -145,-56 -282,-167 -409,-322 -128,-158 -229,-321 -303,-488 -158,-340 -223,-674 -202,-1005 23,-316 118,-539 288,-673 104,-81 222,-120 353,-117 131,3 244,48 345,134 136,123 249,302 329,537 81,235 128,426 143,572 15,146 30,358 48,638zm-835 -1502c-6,-6 -12,0 -18,18 24,-12 30,-18 18,-18z"/>
  <path id="4" fill="#93AA36" fill-rule="nonzero" d="M114289 41022c36,-117 137,-188 306,-212 158,-18 244,24 262,122 0,24 -3,48 -9,72 -256,912 -663,1600 -1218,2059 -273,227 -567,406 -879,537 -315,131 -648,205 -1001,217 -354,15 -689,-59 -1010,-220 -359,-182 -668,-436 -927,-760 -258,-325 -448,-689 -570,-1082 -122,-397 -205,-796 -247,-1198 -44,-400 -50,-805 -23,-1213 77,-1392 493,-2465 1253,-3222 383,-385 814,-650 1289,-796 475,-143 963,-140 1461,9 574,176 978,471 1209,882 182,328 229,700 149,1118 -42,205 -110,396 -205,572 -95,179 -220,346 -374,507 -152,161 -294,295 -425,402 -131,107 -297,232 -502,379 -659,476 -1515,1013 -2557,1606 50,310 133,599 243,864 104,269 244,513 419,734 172,223 365,381 573,482 128,57 291,105 487,137l18 0 95 0c110,0 193,-2 244,-5 65,0 113,-3 148,-9 6,0 12,-3 21,-6 9,-3 18,-3 24,-3 128,-24 223,-45 285,-63 175,-51 342,-143 505,-271 425,-343 742,-888 956,-1639zm-2486 -4847l60 -18c-6,-6 -21,-3 -45,9l-9 9 -6 0zm-870 698c-448,587 -698,1398 -748,2426 -24,334 -18,682 14,1049 1028,-569 1774,-1070 2237,-1502 255,-239 460,-486 612,-742 154,-257 246,-501 267,-734 42,-304 -18,-551 -172,-742 -211,-268 -505,-432 -888,-488 -92,-6 -149,-12 -167,-15 -17,-3 -59,3 -124,18 -69,14 -122,26 -161,32 -12,6 -29,12 -53,21 -24,9 -42,15 -54,21 -14,6 -38,18 -65,30 -24,15 -42,27 -47,33 -57,32 -93,53 -104,59 -12,12 -27,27 -48,39 -21,15 -36,27 -48,33 -59,38 -115,89 -175,146l-9 0c-6,0 -6,3 -6,9 0,6 -3,12 -9,18 -11,6 -26,18 -41,35 -12,18 -24,33 -30,45l-181 209z"/>
  <path id="5" fill="#93AA36" fill-rule="nonzero" d="M120785 35415c149,111 256,272 315,483 62,215 59,408 -3,590 -74,203 -217,361 -428,468 -208,108 -421,140 -641,99 -351,-63 -565,-290 -645,-680 -430,298 -823,665 -1176,1100 -707,873 -1200,1833 -1479,2882 -6,325 -12,817 -21,1475 -9,659 -15,1154 -21,1485 -6,128 -77,235 -211,318 -133,84 -267,129 -400,135 -137,6 -256,-27 -357,-105 -98,-74 -148,-179 -154,-313 -24,-593 -36,-1043 -36,-1344 -12,-2974 21,-5073 95,-6289 12,-185 122,-325 327,-417 205,-95 407,-107 606,-36 196,69 288,206 276,412 -15,295 -30,742 -42,1335 -12,408 -23,1007 -35,1797 12,-24 26,-57 47,-98 21,-45 36,-75 48,-93 407,-787 926,-1517 1559,-2190 573,-623 1093,-996 1556,-1118 336,-89 609,-54 820,104zm-662 942l-9 0 9 0z"/>
  <path id="6" fill="#93AA36" fill-rule="nonzero" d="M124542 43013c-12,0 -20,3 -26,5l-9 0 35 -5zm713 -570c-6,6 -15,21 -26,45l26 -45zm-121 -1544l17 6c-6,0 -12,-3 -17,-6zm1167 -456c359,501 436,1082 234,1738 -92,304 -252,575 -478,814 -226,238 -490,420 -793,548 -353,152 -731,212 -1131,176 -220,-18 -502,-81 -844,-185 -754,-226 -1239,-632 -1452,-1213 -30,-51 -45,-83 -45,-95 -12,-24 -18,-48 -18,-72l0 -51c0,-5 0,-8 -3,-8 -3,0 -6,-3 -6,-9 -3,-30 -3,-57 0,-78l0 -9c0,-6 3,-12 6,-18 3,-6 3,-12 3,-18 12,-59 24,-101 36,-131 6,-24 21,-53 44,-86 39,-84 93,-164 158,-245 44,-59 110,-119 190,-184l157 -105c6,-6 15,-12 30,-18 15,-6 24,-9 30,-9 41,-17 101,-35 184,-59 24,-6 59,-12 107,-18 50,-6 77,-9 83,-9 86,-12 166,-9 235,9 59,12 115,27 175,42 6,0 12,3 21,9 9,6 18,12 20,18 72,35 122,62 149,80 6,0 15,6 24,15 9,12 15,18 20,18 18,6 30,18 36,36 45,47 80,83 104,113 18,24 48,86 95,194 18,32 27,65 27,95 12,98 12,170 0,217 -6,24 -21,72 -45,150 0,5 -3,14 -9,29 -6,15 -12,24 -17,30 -57,96 -104,158 -137,194 -89,86 -157,149 -211,182 -116,77 -211,125 -285,149 -83,36 -146,56 -193,62 255,209 585,337 992,385 24,0 137,-6 339,-18l71 0c6,0 9,-3 9,-6 0,-3 3,-3 9,-3 56,-12 107,-24 145,-36 60,-12 104,-24 131,-36 6,0 9,-3 9,-9 0,6 -3,9 -9,9 6,0 9,-3 9,-9 6,0 15,0 23,-2 9,-3 12,-3 12,-3l131 -54c18,-12 45,-27 83,-48 36,-21 69,-33 92,-39l9 0c9,-6 24,-14 39,-26 15,-12 24,-21 30,-27 11,-6 26,-15 44,-30 15,-15 27,-24 33,-30 12,-12 29,-33 47,-57 21,-26 39,-47 51,-59 9,-15 30,-42 56,-72 24,-32 45,-53 57,-65l15 -18 8 -9 9 -18c6,-6 9,-12 9,-18l9 0 -9 0c66,-116 110,-217 140,-304l0 -9c0,-6 6,-27 18,-62 0,-18 3,-48 9,-87 5,-41 11,-71 17,-86 6,-36 9,-93 9,-167l0 -78c-29,-175 -50,-280 -62,-315 0,-6 -3,-21 -9,-48 -6,-27 -12,-48 -18,-66 -9,-6 -18,-18 -24,-36 -6,-23 -17,-44 -35,-68l-104 -158c-6,-6 -15,-15 -24,-27 -9,-12 -15,-21 -21,-27l9 0 -9 0 -9 -6 -8 0c-24,-18 -69,-59 -140,-119 -68,-62 -107,-95 -113,-101 -6,0 -9,-3 -9,-9l-15 -9c-6,0 -18,-3 -32,-12 -15,-9 -27,-15 -39,-21 -18,-12 -45,-24 -83,-36 -36,-12 -69,-24 -89,-35 -6,0 -21,-6 -45,-18 0,-6 -3,-6 -9,-6 -6,0 -15,-3 -27,-6 -11,-3 -20,-3 -26,-3 -86,-24 -158,-39 -217,-45 -36,0 -62,-3 -86,-9l-9 0 -62 0 -253 0c-51,0 -92,-3 -122,-9l-33 0c-481,-56 -923,-194 -1324,-411 -398,-215 -689,-513 -870,-897 -277,-665 -279,-1321 -9,-1967 273,-644 716,-1142 1324,-1494 603,-342 1328,-351 2175,-23 406,155 730,393 971,715 240,319 356,682 350,1091l0 95 0 36 0 36c0,6 -3,12 -6,21 -6,8 -9,14 -9,20l0 36c-11,48 -26,78 -44,96 0,6 -3,14 -9,23 -6,9 -9,15 -9,21 -41,81 -92,164 -157,245 -45,59 -110,119 -190,184 -18,9 -45,27 -84,51 -38,24 -65,42 -83,54 -6,0 -15,3 -29,9 -15,6 -24,12 -30,15 -42,17 -101,38 -184,62 -18,6 -36,9 -57,12 -21,3 -41,6 -68,9 -27,3 -45,6 -56,6 -96,12 -176,9 -244,-9 -12,0 -68,-18 -166,-54 -6,0 -15,-2 -27,-9 -12,-6 -21,-8 -27,-8 -32,-15 -80,-42 -136,-78 -6,-6 -15,-12 -24,-18 -9,-6 -15,-12 -21,-18 -24,-12 -39,-21 -45,-32 -44,-48 -80,-87 -104,-114 -6,-6 -35,-71 -86,-194 -17,-35 -26,-65 -26,-95 -12,-98 -12,-173 0,-217 6,-36 20,-90 44,-158 6,-6 9,-15 9,-27 0,-12 3,-21 9,-27 56,-92 107,-158 145,-200 72,-68 140,-128 211,-176 122,-74 214,-125 277,-149 95,-44 190,-68 288,-68 68,-12 136,-3 199,27 12,6 23,12 35,18 12,6 24,8 36,8 -71,-152 -151,-277 -244,-375 -133,-134 -296,-247 -487,-337 -193,-89 -380,-137 -567,-143 -134,0 -235,3 -303,9l-44 6c-30,0 -45,0 -51,0 -6,0 -15,3 -27,6 -12,3 -20,3 -26,3 -48,6 -101,21 -167,45 -6,0 -12,0 -15,0l-8 9 -36 17c-24,12 -60,27 -104,48 -48,21 -83,36 -104,48 -6,0 -15,3 -27,12 -12,9 -21,18 -27,24 -17,11 -41,26 -74,47 -32,21 -53,36 -65,48 -36,36 -68,63 -104,86l-54 54c-14,18 -35,42 -59,78l-104 131c-12,12 -30,35 -53,71 -24,33 -42,57 -51,69l-9 9c-6,12 -15,27 -27,44 -11,15 -20,30 -26,42 -80,152 -137,268 -167,349l-50 158c0,24 -9,62 -27,113 -24,122 -41,247 -53,376l0 149 9 113 0 9c17,122 50,250 98,384l0 9 9 18c3,6 9,12 14,21 6,9 9,15 9,21 36,71 66,119 89,149 9,18 30,45 60,83 30,39 53,69 71,93 6,12 18,24 39,33 21,11 35,23 47,35 57,60 104,99 140,123 6,6 27,20 65,38 36,21 60,33 66,33 190,98 329,158 415,182 54,0 113,12 184,36 99,23 179,38 244,44 1034,-24 1776,280 2228,915zm-2160 27l63 0 -63 0zm357 54c35,6 59,9 71,15 -36,-12 -59,-15 -71,-15zm906 1597c6,-6 9,-18 9,-35 -6,12 -9,23 -9,35z"/>
  <path fill="#FF396C" fill-rule="nonzero" d="M26849 34499c179,-388 381,-544 608,-473 202,57 301,251 292,587 -10,118 -33,241 -71,373 -203,572 -311,884 -330,941l-400 927c-99,241 -259,577 -476,1008 -217,425 -354,695 -406,808 -829,1570 -1569,2828 -2224,3769 -123,185 -250,374 -386,573 -137,198 -302,425 -486,671 -184,251 -320,435 -415,558l-716 842c-38,47 -94,118 -174,208 -76,95 -137,161 -184,208l-372 402c-2112,2294 -4525,4015 -7249,5169 -113,38 -316,118 -617,241 -297,128 -528,218 -697,270l-1339 416c-928,241 -1932,326 -3007,250 -994,-75 -1960,-283 -2903,-624 -1027,-397 -1904,-927 -2620,-1593 -47,-38 -108,-100 -179,-194 -481,-478 -891,-1022 -1230,-1622 -358,-662 -636,-1358 -830,-2077 -348,-1357 -438,-2894 -264,-4615 95,-866 217,-1603 373,-2213l264 -1083c18,-81 122,-440 320,-1064 33,-142 292,-837 773,-2095 551,-1107 891,-1769 1018,-1982 174,-312 575,-932 1202,-1854 763,-969 1225,-1546 1380,-1721 67,-81 509,-558 1325,-1424 923,-870 1385,-1310 1395,-1319 570,-525 1070,-960 1494,-1301 -19,10 -43,15 -71,15 -28,0 -47,4 -56,14 -420,80 -830,57 -1226,-71 -443,-147 -806,-364 -1093,-653 -495,-487 -867,-1135 -1117,-1939 -250,-846 -335,-1712 -264,-2591 66,-804 226,-1608 485,-2422 175,-572 406,-1139 688,-1693 646,-1243 1504,-2260 2569,-3045 598,-435 1211,-747 1838,-941 679,-213 1376,-265 2083,-156 1150,175 2182,742 3096,1693 194,194 406,468 646,832l85 137c28,71 52,123 80,152 19,18 28,37 28,56 85,213 -14,369 -297,478 -278,104 -471,85 -570,-62 -452,-600 -773,-978 -966,-1139 -406,-350 -872,-601 -1395,-748 -490,-137 -990,-146 -1508,-28 -853,203 -1692,766 -2512,1693 -863,960 -1499,2128 -1904,3504 -165,573 -283,1064 -344,1466 -57,393 -90,648 -99,781 -19,255 -19,511 0,761 28,544 122,1026 292,1452 90,222 193,411 302,568 108,141 245,255 400,349 137,81 311,123 523,123 151,10 406,-14 773,-71 905,-137 1754,-444 2555,-926 28,-19 70,-48 117,-90 52,-43 85,-71 104,-90l306 -237c33,-28 109,-75 222,-151l-14 0 179 -123c19,-9 47,-28 89,-57 43,-28 71,-47 90,-56 57,-38 80,-57 80,-62 0,-5 -14,0 -38,19l81 -38c113,-85 231,-80 358,14 66,33 113,76 141,123 203,242 231,445 94,610 -273,294 -725,644 -1352,1041 -1070,837 -1782,1414 -2140,1731 -2394,2005 -4279,4081 -5660,6233 -763,1239 -1385,2473 -1866,3698 -28,66 -141,392 -344,984l-165 487 -123 496c-28,114 -75,279 -132,506 -61,227 -103,397 -132,506l-193 1012c-367,1859 -443,3528 -221,5018 127,837 358,1594 688,2256l127 250 151 251c28,42 137,203 330,468 165,232 419,501 763,804 863,705 1899,1168 3106,1400 660,128 1291,189 1890,180 221,0 532,-29 938,-81 47,0 94,-4 146,-14 52,-9 103,-24 160,-38 52,-14 99,-24 137,-33l485 -137c108,-28 273,-71 490,-132 212,-62 377,-109 490,-147l966 -331c109,-38 420,-166 938,-388l467 -208c203,-95 358,-166 457,-222l900 -473c71,-43 368,-222 881,-539l443 -265 415 -303c90,-66 231,-165 415,-298 184,-132 320,-231 415,-298 1093,-860 2106,-1797 3035,-2813 1583,-1746 2959,-3798 4128,-6163 118,-222 283,-567 485,-1026 24,-57 95,-208 203,-449 113,-246 193,-440 250,-577l141 -359c14,-67 61,-166 137,-308 -19,19 -33,43 -43,71l95 -208zm-9402 -19744l14 43c0,-19 -5,-34 -14,-43z"/>
  <path id="1" fill="#FF396C" fill-rule="nonzero" d="M34698 41860c74,-104 184,-140 330,-104 134,30 190,98 166,209 -6,29 -21,59 -44,89 -256,385 -583,677 -978,876 -398,203 -807,257 -1232,161 -853,-179 -1604,-679 -2255,-1502 -6,6 -14,21 -26,45 -9,18 -30,45 -57,83 -24,39 -38,60 -38,66 -6,12 -15,30 -30,50 -15,24 -27,42 -39,54l-80 131c-3,18 -18,42 -38,69 -21,30 -36,54 -48,71 -86,158 -134,242 -140,254 -12,24 -44,98 -104,226 0,-6 -3,-9 -8,-9l0 27c-7,12 -9,24 -9,36l0 6c-18,176 -122,307 -312,390 -193,84 -381,96 -562,36 -184,-63 -267,-188 -258,-381 6,-75 21,-156 42,-236 17,-80 56,-173 106,-274 54,-101 90,-176 113,-224 24,-47 75,-131 149,-256 77,-125 116,-194 122,-206 127,-217 326,-533 591,-953 -743,-1485 -1114,-3240 -1114,-5264 0,-140 74,-256 223,-349 148,-95 294,-143 439,-149 152,-6 282,33 392,114 110,80 167,193 167,339 0,978 104,1941 311,2883 87,402 205,822 357,1266 546,-805 858,-1269 938,-1398 345,-524 514,-789 514,-795 110,-179 271,-456 481,-829 137,-250 247,-471 330,-665 18,-32 39,-92 60,-173 35,-65 47,-95 35,-95 0,0 -6,21 -18,69 12,-54 24,-126 36,-218 12,-188 122,-328 336,-420 211,-93 415,-104 611,-36 200,72 289,209 271,411 -12,158 -54,331 -122,525 -68,191 -134,343 -190,450 -59,107 -146,262 -261,468 -378,685 -1156,1890 -2332,3612 -18,30 -50,78 -98,140 -45,66 -77,111 -95,140 220,439 460,832 722,1181 332,441 692,724 1081,846 300,93 588,60 861,-101 270,-161 505,-388 704,-686zm-4621 796l0 -18 8 0c0,30 -5,48 -17,54 0,-6 2,-12 5,-18 4,-6 4,-12 4,-18zm504 -900c-5,12 -11,21 -17,27 0,-6 3,-9 9,-9l8 -18z"/>
  <path id="2" fill="#FF396C" fill-rule="nonzero" d="M40918 40579c35,-116 136,-188 306,-212 157,-18 243,24 261,122 0,24 -3,48 -9,72 -255,912 -662,1600 -1218,2059 -273,227 -567,406 -879,537 -315,131 -647,205 -1001,217 -353,15 -692,-59 -1010,-220 -359,-182 -668,-432 -923,-757 -253,-322 -443,-683 -568,-1076 -124,-397 -211,-796 -252,-1192 -45,-400 -54,-802 -24,-1210 0,-6 0,-9 -3,-9 -3,0 -6,-3 -6,-9 42,-844 223,-1574 541,-2191 273,-542 623,-975 1051,-1302 484,-367 971,-549 1464,-549 511,0 1007,230 1489,689 457,438 730,921 816,1448 12,90 -26,161 -113,221 -86,56 -181,77 -279,65 -98,-15 -154,-65 -163,-155 -60,-319 -181,-614 -362,-882 -185,-265 -413,-459 -693,-575 -86,-42 -210,-66 -374,-78l-166 0c-12,0 -30,0 -56,3 -24,3 -45,6 -57,6 48,-6 39,-6 -27,0 -26,6 -86,18 -172,42 -6,0 -24,6 -53,18 -27,12 -45,21 -51,27 -71,35 -107,50 -113,50 -6,6 -21,18 -41,33 -18,15 -36,24 -48,30 -133,92 -223,164 -267,209l-45 44 -35 36c-18,18 -39,42 -69,75 -29,29 -50,56 -62,71 -152,182 -285,388 -407,620 -291,578 -454,1243 -490,2000l0 18c-57,849 53,1633 333,2349 104,268 243,512 415,733 176,223 366,381 577,483 127,56 288,104 487,137l18 0 95 0c110,0 190,-3 243,-6 63,0 113,-3 149,-9 6,0 12,-3 21,-6 8,-3 17,-3 20,-3 128,-24 226,-45 288,-63 176,-50 342,-143 505,-271 425,-343 743,-888 957,-1639z"/>
  <path id="3" fill="#FF396C" fill-rule="nonzero" d="M43392 37905c-24,30 -63,57 -113,78 -36,560 -59,998 -71,1314 -12,319 -9,715 6,1192 15,477 56,912 125,1303 91,527 294,846 599,951 182,65 354,53 514,-30 164,-84 294,-194 392,-328 98,-134 187,-292 262,-471 47,-116 154,-170 321,-158 145,6 219,60 219,158l-18 86c-169,397 -409,710 -721,939 -315,230 -675,316 -1081,257 -464,-63 -856,-355 -1174,-871 -291,-480 -472,-1114 -549,-1904 -18,-212 -33,-420 -42,-635 -12,-212 -18,-444 -15,-695 3,-250 6,-453 6,-614 0,-161 9,-390 24,-694 18,-301 33,-510 42,-620 9,-110 23,-343 47,-694 24,-352 36,-564 42,-632l0 -9 0 -27c0,-54 6,-131 18,-235 11,-105 17,-185 17,-236 0,-30 6,-69 18,-113 110,-1100 262,-2152 452,-3154 237,-1198 517,-2151 837,-2855 330,-733 728,-1219 1191,-1457 202,-123 443,-179 722,-167 279,12 496,113 654,307 166,208 258,572 270,1091 6,447 -60,989 -193,1624 -262,1264 -651,2629 -1165,4095 -249,704 -499,1315 -745,1830 -247,516 -544,972 -891,1374zm956 -7779c-255,814 -448,1663 -579,2546 -130,882 -243,1919 -341,3111l0 9 -9 9c-36,629 -66,1085 -90,1371 188,-298 348,-587 479,-873 291,-605 555,-1264 793,-1973 424,-1264 683,-2525 775,-3783 24,-360 36,-634 36,-819l0 -349c0,-77 -3,-161 -9,-253 -24,-239 -54,-415 -89,-525 -6,-30 -21,-71 -42,-131l-9 -9 -18 -36c-6,6 -18,18 -35,33 -18,15 -33,24 -42,30l-62 60c-75,95 -116,143 -122,149l-86 122c-36,53 -98,167 -184,343 -122,253 -244,578 -366,968z"/>
  <path id="4" fill="#FF396C" fill-rule="nonzero" d="M54322 41914c45,-116 152,-170 321,-158 145,6 217,60 217,158l-18 86c-166,403 -407,719 -722,948 -312,230 -671,316 -1078,256 -463,-62 -855,-357 -1176,-879 -244,-390 -407,-873 -496,-1451 -149,414 -342,808 -573,1180 -422,662 -984,1073 -1679,1231 -320,80 -656,86 -1010,12 -353,-72 -653,-227 -896,-459 -384,-367 -639,-826 -767,-1380 -127,-551 -199,-1195 -217,-1928 -5,-331 0,-698 12,-1097 15,-397 33,-722 48,-969 18,-247 50,-623 98,-1127 44,-503 74,-840 86,-1007 12,-188 125,-328 336,-420 210,-93 415,-104 611,-36 200,72 289,209 271,411 -18,215 -48,573 -92,1067 -42,495 -75,880 -95,1157 -21,277 -36,620 -51,1028 -15,411 -21,790 -15,1133 12,593 78,1126 193,1597 27,111 69,236 122,376 27,80 60,158 95,226 48,81 110,176 190,280 6,6 18,21 36,45 18,21 30,36 35,42l69 71c18,12 38,27 62,48 24,21 42,36 60,48 6,6 18,12 35,21 18,9 30,18 36,20l0 9c12,6 30,15 56,24 27,9 45,15 57,21 6,6 18,12 32,18 18,6 30,9 36,9 18,6 36,9 57,12 20,3 44,6 71,9 24,3 44,6 56,6l27 0 137 0c6,0 17,-3 32,-6 15,-3 27,-3 39,-3 18,0 39,-3 68,-9 30,-6 54,-12 72,-18 23,-6 56,-12 97,-21 45,-9 75,-18 93,-24l0 -9 80 -23c74,-30 136,-60 190,-90l104 -51 9 -9c6,0 12,-3 18,-8 329,-227 576,-468 739,-725 407,-623 677,-1418 817,-2384 0,-391 9,-778 24,-1162 15,-385 44,-895 89,-1526 47,-635 74,-1020 80,-1154 12,-188 122,-328 330,-420 208,-93 413,-104 609,-36 199,72 291,209 279,411 -18,287 -45,710 -83,1276 -39,563 -66,990 -84,1276 -38,637 -65,1099 -77,1383 -12,283 -12,682 3,1195 15,515 57,974 128,1377 30,155 59,289 95,396 36,107 95,218 178,328 83,110 190,185 318,227 181,65 350,53 514,-30 163,-84 294,-194 395,-328 101,-134 190,-292 267,-471z"/>
  <path id="5" fill="#FF396C" fill-rule="nonzero" d="M58507 42570c-12,0 -21,3 -27,6l-8 0 35 -6zm713 -570c-6,6 -15,21 -27,45l27 -45zm-122 -1543l18 6c-6,0 -12,-3 -18,-6zm1167 -456c360,500 437,1081 235,1737 -92,304 -252,575 -478,814 -226,238 -490,420 -793,548 -353,152 -731,212 -1132,176 -219,-18 -502,-80 -843,-185 -755,-226 -1239,-632 -1453,-1213 -29,-51 -44,-83 -44,-95 -12,-24 -18,-48 -18,-72l0 -50c0,-6 0,-9 -3,-9 -3,0 -6,-3 -6,-9 -3,-30 -3,-57 0,-78l0 -9c0,-6 3,-12 6,-18 3,-6 3,-12 3,-17 12,-60 24,-102 36,-132 6,-23 20,-53 44,-86 39,-83 92,-164 158,-244 44,-60 110,-120 190,-185l157 -105c6,-5 15,-11 30,-17 15,-6 24,-9 29,-9 42,-18 101,-36 185,-60 23,-6 59,-12 107,-18 50,-6 77,-9 83,-9 86,-12 166,-9 234,9 60,12 116,27 176,42 6,0 12,3 20,9 9,6 18,12 21,18 71,35 122,62 149,80 6,0 15,6 23,15 9,12 15,18 21,18 18,6 30,18 36,36 44,47 80,83 104,113 18,24 47,86 95,194 18,33 27,65 27,95 12,98 12,170 0,218 -6,23 -21,71 -45,149 0,6 -3,15 -9,30 -6,14 -12,23 -18,29 -56,96 -104,158 -136,194 -89,86 -158,149 -211,182 -116,77 -211,125 -285,149 -83,36 -146,56 -193,62 255,209 585,337 992,385 23,0 136,-6 338,-18l72 0c6,0 8,-3 8,-6 0,-3 3,-3 9,-3 57,-12 107,-24 146,-36 59,-12 104,-23 131,-35 6,0 9,-3 9,-9 0,6 -3,9 -9,9 6,0 9,-3 9,-9 5,0 14,0 23,-3 9,-3 12,-3 12,-3l131 -54c18,-12 45,-27 83,-48 36,-21 68,-32 92,-38l9 0c9,-6 24,-15 39,-27 15,-12 23,-21 29,-27 12,-6 27,-15 45,-30 15,-15 27,-24 33,-30 11,-12 29,-32 47,-56 21,-27 39,-48 51,-60 9,-15 29,-42 56,-71 24,-33 45,-54 56,-66l15 -18 9 -9 9 -18c6,-6 9,-12 9,-18l9 0 -9 0c65,-116 110,-217 140,-304l0 -9c0,-5 5,-26 17,-62 0,-18 3,-48 9,-87 6,-41 12,-71 18,-86 6,-36 9,-92 9,-167l0 -77c-30,-176 -50,-281 -62,-316 0,-6 -3,-21 -9,-48 -6,-27 -12,-48 -18,-66 -9,-6 -18,-17 -24,-35 -6,-24 -18,-45 -35,-69l-104 -158c-6,-6 -15,-15 -24,-27 -9,-12 -15,-21 -21,-26l9 0 -9 0 -9 -6 -9 0c-23,-18 -68,-60 -139,-120 -69,-62 -107,-95 -113,-101 -6,0 -9,-3 -9,-9l-15 -9c-6,0 -18,-3 -33,-12 -15,-9 -26,-15 -38,-21 -18,-12 -45,-24 -83,-36 -36,-11 -69,-23 -90,-35 -5,0 -20,-6 -44,-18 0,-6 -3,-6 -9,-6 -6,0 -15,-3 -27,-6 -12,-3 -21,-3 -26,-3 -87,-24 -158,-39 -217,-45 -36,0 -63,-3 -86,-9l-9 0 -63 0 -252 0c-51,0 -92,-3 -122,-9l-33 0c-481,-56 -923,-193 -1324,-411 -398,-215 -689,-513 -871,-897 -276,-665 -279,-1320 -9,-1967 274,-644 716,-1142 1325,-1493 603,-343 1328,-352 2174,-24 407,155 731,393 972,715 240,319 356,683 350,1091l0 95 0 36 0 36c0,6 -3,12 -6,21 -6,9 -9,15 -9,21l0 35c-12,48 -27,78 -44,96 0,6 -3,15 -9,23 -6,10 -9,15 -9,21 -42,81 -92,164 -158,245 -44,59 -109,119 -190,185 -17,8 -44,26 -83,50 -38,24 -65,42 -83,54 -6,0 -15,3 -30,9 -14,6 -23,12 -29,15 -42,18 -101,38 -185,62 -17,6 -35,9 -56,12 -21,3 -41,6 -68,9 -27,3 -45,6 -57,6 -95,12 -175,9 -243,-9 -12,0 -69,-18 -167,-53 -5,0 -14,-3 -26,-9 -12,-6 -21,-9 -27,-9 -33,-15 -80,-42 -137,-78 -6,-6 -15,-12 -23,-18 -9,-6 -15,-12 -21,-18 -24,-12 -39,-20 -45,-32 -44,-48 -80,-87 -104,-114 -6,-6 -35,-71 -86,-193 -18,-36 -27,-66 -27,-96 -12,-98 -12,-173 0,-217 6,-36 21,-90 45,-158 6,-6 9,-15 9,-27 0,-12 3,-21 9,-27 56,-92 107,-158 145,-200 72,-68 140,-128 211,-175 122,-75 214,-126 276,-149 95,-45 191,-69 288,-69 69,-12 137,-3 200,27 11,6 23,12 35,18 12,6 24,9 36,9 -71,-152 -152,-277 -244,-376 -133,-134 -297,-247 -487,-337 -193,-89 -380,-137 -567,-143 -134,0 -235,3 -303,9l-45 6c-29,0 -44,0 -50,0 -6,0 -15,3 -27,6 -12,3 -21,3 -27,3 -47,6 -101,21 -166,45 -6,0 -12,0 -15,0l-9 9 -35 18c-24,11 -60,26 -104,47 -48,21 -83,36 -104,48 -6,0 -15,3 -27,12 -12,9 -21,18 -27,24 -18,12 -41,27 -74,47 -33,21 -53,36 -65,48 -36,36 -69,63 -104,87l-54 53c-15,18 -35,42 -59,78l-104 131c-12,12 -30,36 -54,71 -23,33 -41,57 -50,69l-9 9c-6,12 -15,27 -27,45 -12,15 -20,29 -26,41 -81,152 -137,269 -167,349l-50 158c0,24 -9,63 -27,113 -24,122 -42,248 -54,376l0 149 10 113 0 9c17,122 50,250 97,385l0 8 9 18c3,6 9,12 15,21 6,9 9,15 9,21 36,72 66,119 89,149 9,18 30,45 60,84 29,38 53,68 71,92 6,12 18,24 39,33 20,12 35,24 47,35 57,60 104,99 140,123 6,6 26,20 65,38 36,21 59,33 65,33 190,99 330,158 416,182 54,0 113,12 184,36 98,24 179,39 244,45 1034,-24 1776,280 2227,915zm-2159 26l63 0 -63 0zm357 54c35,6 59,9 71,15 -36,-12 -60,-15 -71,-15zm905 1598c7,-6 9,-18 9,-36 -5,12 -9,24 -9,36z"/>
  <path id="6" fill="#FF396C" fill-rule="nonzero" d="M62799 33846c-12,185 -122,325 -327,417 -207,95 -407,107 -605,36 -197,-69 -292,-206 -286,-411 0,-6 0,-12 3,-24 3,-12 3,-21 3,-27l0 -63c18,-185 131,-325 336,-417 208,-95 407,-104 600,-36 196,69 288,206 276,412l0 113zm1557 8068c47,-116 154,-170 323,-158 143,6 217,60 217,158l-18 86c-169,397 -410,710 -721,939 -315,230 -675,316 -1082,257 -463,-63 -855,-355 -1173,-871 -291,-480 -472,-1114 -549,-1904 -33,-397 -51,-838 -51,-1324 0,-485 6,-876 21,-1171 15,-292 44,-754 86,-1380 45,-623 71,-1031 83,-1216 12,-188 122,-328 327,-420 205,-93 407,-104 606,-36 196,72 288,209 276,411 -15,287 -44,713 -80,1279 -39,569 -65,992 -83,1273 -42,637 -69,1099 -80,1383 -12,283 -9,682 5,1195 15,515 57,974 125,1377 95,527 294,846 603,951 178,65 351,53 511,-30 163,-84 294,-194 392,-328 98,-134 187,-292 262,-471z"/>
  <g>
   <path id="7" fill="#FF396C" fill-rule="nonzero" d="M67994 42507c-6,0 -15,3 -27,9 -12,6 -21,9 -27,9l54 -18zm-104 0c-6,0 -9,-3 -9,-9l-18 -9c6,0 15,6 27,18zm2810 -6837c116,623 110,1392 -18,2304 -128,933 -327,1824 -600,2673 -300,927 -653,1604 -1060,2036 -158,167 -330,307 -514,414 -187,107 -389,179 -609,215 -220,33 -434,-3 -636,-116 -175,-87 -335,-218 -484,-397 -145,-176 -258,-340 -338,-489 -78,-149 -167,-339 -265,-572 -273,-635 -502,-1392 -689,-2271 -178,-861 -300,-1666 -365,-2417 -75,-811 -80,-1386 -18,-1729 30,-140 110,-253 238,-340 124,-89 264,-134 415,-140 140,-6 274,33 401,116 128,87 179,194 149,328 -36,176 -54,400 -54,674 0,197 3,346 9,444 6,146 15,289 27,429 56,796 166,1604 330,2417 145,769 323,1449 531,2036 92,274 202,519 330,733 83,140 149,242 202,307 6,3 12,15 24,30 12,15 21,24 27,30l8 9c12,12 27,27 48,48 21,20 36,32 47,38 6,6 9,9 9,9l18 0c-18,-12 -27,-15 -27,-9l54 27c6,0 9,3 9,9l0 9 0 -9c0,-6 -3,-9 -9,-9 12,0 30,6 50,18l-6 0 6 0 0 0 54 -27 9 0c6,0 15,-3 30,-12 14,-9 26,-18 32,-24l0 0c9,-12 33,-26 63,-47 32,-21 59,-36 74,-48 18,-12 44,-36 80,-69 359,-366 707,-944 1043,-1728 320,-757 552,-1526 698,-2307 68,-409 115,-712 139,-915 -315,-200 -540,-540 -680,-1022 -116,-403 -110,-778 18,-1127 62,-164 169,-286 312,-373 145,-83 294,-86 445,-12 214,99 363,385 443,856zm-2766 6864l0 0 0 0zm-8 -9l-27 0 27 0zm2242 -5293c-3,29 -3,47 0,53l0 -53z"/>
  </g>
  <path id="8" fill="#FF396C" fill-rule="nonzero" d="M76590 40579c35,-116 136,-188 305,-212 158,-18 244,24 262,122 0,24 -3,48 -9,72 -255,912 -662,1600 -1218,2059 -273,227 -567,406 -879,537 -315,131 -647,205 -1001,217 -353,15 -689,-59 -1010,-220 -359,-182 -668,-435 -927,-760 -258,-325 -448,-689 -570,-1082 -122,-397 -205,-796 -246,-1198 -45,-400 -51,-805 -24,-1213 77,-1392 493,-2465 1253,-3222 384,-385 814,-650 1289,-796 476,-143 963,-140 1462,9 573,176 977,471 1209,882 181,328 228,701 148,1118 -41,205 -110,396 -205,572 -95,179 -219,346 -374,507 -152,161 -294,295 -425,402 -130,107 -297,233 -502,379 -659,477 -1515,1013 -2557,1606 50,310 134,599 244,865 103,268 243,512 418,733 173,223 366,381 574,483 127,56 291,104 487,137l18 0 95 0c109,0 193,-3 243,-6 65,0 113,-3 149,-9 5,0 11,-3 20,-6 9,-3 18,-3 24,-3 128,-24 223,-45 285,-63 176,-50 342,-143 505,-271 425,-343 743,-888 957,-1639zm-2486 -4847l59 -17c-6,-6 -21,-3 -45,8l-8 9 -6 0zm-871 698c-448,587 -698,1398 -748,2426 -24,334 -18,683 15,1049 1027,-569 1773,-1070 2236,-1502 256,-238 461,-486 612,-742 155,-256 247,-501 267,-733 42,-304 -17,-552 -172,-743 -211,-268 -505,-432 -888,-488 -92,-6 -148,-12 -166,-15 -18,-3 -60,3 -125,18 -68,15 -122,27 -160,32 -12,6 -30,12 -54,21 -24,9 -42,15 -53,21 -15,6 -39,18 -66,30 -23,15 -41,27 -47,33 -57,33 -92,53 -104,59 -12,12 -27,27 -48,39 -21,15 -35,27 -47,33 -60,39 -116,89 -175,146l-9 0c-6,0 -6,3 -6,9 0,6 -3,12 -9,18 -12,6 -27,18 -42,35 -12,18 -24,33 -29,45l-182 209z"/>
  <path fill="#FF396C" fill-rule="nonzero" d="M116757 8853c-1649,-3456 12245,8379 15829,442 2930,-6491 -18872,-6406 -9857,-755 4947,3100 12984,-1283 1640,-1870 15630,-392 -2347,8665 -4632,-108 -1847,-7092 19779,-3381 13371,4407 -3626,4407 -10362,2228 -14285,-406 7649,15461 20662,8691 16976,-2026 -2068,-6009 -2705,-4403 -4408,-8537 16115,21209 -2823,33600 -14634,8853z"/>
  <path fill="#93AA36" fill-rule="nonzero" d="M130278 36410l350 5472c-365,-10745 8314,-14262 8518,-22132 217,-8381 167,-26336 1121,-3623 780,18574 -9283,23607 -9549,34815 -55,2329 -744,340 -680,-299 237,-2369 -127,-10276 -783,-13986 -3234,-18279 -11461,-12174 -8168,-7246 697,1043 942,1542 -597,53 -3799,-4716 5870,-15101 9788,6946z"/>
 </g>
</svg>
