<svg xmlns="http://www.w3.org/2000/svg" width="18.875" height="18.875" viewBox="0 0 18.875 18.875">
  <metadata><?xpacket begin="﻿" id="W5M0MpCehiHzreSzNTczkc9d"?>
<x:xmpmeta xmlns:x="adobe:ns:meta/" x:xmptk="Adobe XMP Core 5.6-c142 79.160924, 2017/07/13-01:06:39        ">
   <rdf:RDF xmlns:rdf="http://www.w3.org/1999/02/22-rdf-syntax-ns#">
      <rdf:Description rdf:about=""/>
   </rdf:RDF>
</x:xmpmeta>
                                                                                                    
                                                                                                    
                                                                                                    
                                                                                                    
                                                                                                    
                                                                                                    
                                                                                                    
                                                                                                    
                                                                                                    
                                                                                                    
                                                                                                    
                                                                                                    
                                                                                                    
                                                                                                    
                                                                                                    
                                                                                                    
                                                                                                    
                                                                                                    
                                                                                                    
                                                                                                    
                           
<?xpacket end="w"?></metadata>
<defs>
    <style>
      .cls-1 {
        fill: #fff;
        fill-rule: evenodd;
      }
    </style>
  </defs>
  <path id="Forma_1" data-name="Forma 1" class="cls-1" d="M254.45,284.757a9.294,9.294,0,0,1-13.763,8.061l-5.137,1.632,1.675-4.94a9.106,9.106,0,0,1-1.332-4.753A9.279,9.279,0,0,1,254.45,284.757Zm-9.278-7.741a7.779,7.779,0,0,0-7.8,7.741,7.659,7.659,0,0,0,1.486,4.538l-0.975,2.874,3-.953A7.761,7.761,0,1,0,245.172,277.016Zm4.685,9.861a1.147,1.147,0,0,0-.436-0.263c-0.228-.113-1.346-0.659-1.554-0.734a0.356,0.356,0,0,0-.512.112c-0.151.226-.587,0.734-0.72,0.885a0.35,0.35,0,0,1-.493.057,6.252,6.252,0,0,1-1.829-1.12,6.809,6.809,0,0,1-1.265-1.563,0.326,0.326,0,0,1,.1-0.46c0.1-.1.227-0.264,0.341-0.395a1.5,1.5,0,0,0,.227-0.377,0.411,0.411,0,0,0-.019-0.395c-0.057-.113-0.512-1.223-0.7-1.675s-0.379-.377-0.512-0.377-0.284-.019-0.436-0.019a0.839,0.839,0,0,0-.606.283,2.521,2.521,0,0,0-.8,1.882,4.373,4.373,0,0,0,.928,2.334,9.3,9.3,0,0,0,3.885,3.406c2.313,0.9,2.313.6,2.73,0.565a2.3,2.3,0,0,0,1.535-1.073A1.868,1.868,0,0,0,249.857,286.877Z" transform="translate(-235.563 -275.563)"/>
</svg>
